<svg width="84" height="84" viewBox="0 0 84 84" fill="none" xmlns="http://www.w3.org/2000/svg">
<path d="M41.8893 30.1245L53.5129 39.2296M41.8893 30.1245L30.4871 39.2296M41.8893 30.1245L60.2657 16L53.5129 39.2296M41.8893 30.1245L23.2915 16L30.4871 39.2296M53.5129 39.2296L48.9742 53.1206M53.5129 39.2296L72 53.1206H48.9742M48.9742 53.1206H34.9151M48.9742 53.1206L41.8893 76L34.9151 53.1206M34.9151 53.1206L30.4871 39.2296M34.9151 53.1206H12L30.4871 39.2296M82 42C82 64.0914 64.0914 82 42 82C19.9086 82 2 64.0914 2 42C2 19.9086 19.9086 2 42 2C64.0914 2 82 19.9086 82 42Z" stroke="url(#paint0_linear_202_16)" stroke-width="4"/>
<defs>
<linearGradient id="paint0_linear_202_16" x1="42" y1="2" x2="81.9287" y2="96.1236" gradientUnits="userSpaceOnUse">
<stop stop-color="#081C65"/>
<stop offset="1" stop-color="#13ADDF"/>
</linearGradient>
</defs>
</svg>
